<svg width="56" height="56" viewBox="0 0 56 56" fill="none" xmlns="http://www.w3.org/2000/svg">
<rect width="56" height="56" rx="12" fill="#F9F9F9"/>
<path fill-rule="evenodd" clip-rule="evenodd" d="M17.9766 26.7266C17.5495 27.1537 17.5495 27.8463 17.9766 28.2734L23.8099 34.1067C24.2371 34.5339 24.9296 34.5339 25.3567 34.1067C25.7839 33.6796 25.7839 32.9871 25.3567 32.5599L21.3905 28.5937L36.25 28.5937C36.8541 28.5937 37.3437 28.1041 37.3437 27.5C37.3437 26.8959 36.8541 26.4062 36.25 26.4062L21.3905 26.4062L25.3567 22.4401C25.7839 22.0129 25.7839 21.3204 25.3567 20.8933C24.9296 20.4661 24.2371 20.4661 23.8099 20.8933L17.9766 26.7266Z" fill="#28303F"/>
</svg>
