<svg width="182" height="41" viewBox="0 0 182 41" fill="none" xmlns="http://www.w3.org/2000/svg">
<rect x="1" y="1" width="180" height="39" rx="19.5" stroke="#B75397" stroke-width="2"/>
<rect x="1" y="1" width="180" height="39" rx="19.5" stroke="url(#paint0_linear_121_126)" stroke-width="2"/>
<path d="M37.25 19.75H32.75V15.25C32.75 15.0511 32.671 14.8603 32.5303 14.7197C32.3897 14.579 32.1989 14.5 32 14.5C31.8011 14.5 31.6103 14.579 31.4697 14.7197C31.329 14.8603 31.25 15.0511 31.25 15.25V19.75H26.75C26.5511 19.75 26.3603 19.829 26.2197 19.9697C26.079 20.1103 26 20.3011 26 20.5C26 20.6989 26.079 20.8897 26.2197 21.0303C26.3603 21.171 26.5511 21.25 26.75 21.25H31.25V25.75C31.25 25.9489 31.329 26.1397 31.4697 26.2803C31.6103 26.421 31.8011 26.5 32 26.5C32.1989 26.5 32.3897 26.421 32.5303 26.2803C32.671 26.1397 32.75 25.9489 32.75 25.75V21.25H37.25C37.4489 21.25 37.6397 21.171 37.7803 21.0303C37.921 20.8897 38 20.6989 38 20.5C38 20.3011 37.921 20.1103 37.7803 19.9697C37.6397 19.829 37.4489 19.75 37.25 19.75Z" fill="black"/>
<path d="M37.25 19.75H32.75V15.25C32.75 15.0511 32.671 14.8603 32.5303 14.7197C32.3897 14.579 32.1989 14.5 32 14.5C31.8011 14.5 31.6103 14.579 31.4697 14.7197C31.329 14.8603 31.25 15.0511 31.25 15.25V19.75H26.75C26.5511 19.75 26.3603 19.829 26.2197 19.9697C26.079 20.1103 26 20.3011 26 20.5C26 20.6989 26.079 20.8897 26.2197 21.0303C26.3603 21.171 26.5511 21.25 26.75 21.25H31.25V25.75C31.25 25.9489 31.329 26.1397 31.4697 26.2803C31.6103 26.421 31.8011 26.5 32 26.5C32.1989 26.5 32.3897 26.421 32.5303 26.2803C32.671 26.1397 32.75 25.9489 32.75 25.75V21.25H37.25C37.4489 21.25 37.6397 21.171 37.7803 21.0303C37.921 20.8897 38 20.6989 38 20.5C38 20.3011 37.921 20.1103 37.7803 19.9697C37.6397 19.829 37.4489 19.75 37.25 19.75Z" fill="url(#paint1_linear_121_126)"/>
<path d="M53.5753 19.1293H52.0241C51.9645 18.7978 51.8535 18.5062 51.6911 18.2543C51.5286 18.0024 51.3298 17.7886 51.0945 17.6129C50.8591 17.4373 50.5956 17.3047 50.304 17.2152C50.0156 17.1257 49.709 17.081 49.3842 17.081C48.7976 17.081 48.2723 17.2285 47.8082 17.5234C47.3475 17.8184 46.983 18.2509 46.7145 18.821C46.4493 19.3911 46.3168 20.0871 46.3168 20.9091C46.3168 21.7377 46.4493 22.437 46.7145 23.0071C46.983 23.5772 47.3492 24.008 47.8132 24.2997C48.2772 24.5914 48.7992 24.7372 49.3793 24.7372C49.7008 24.7372 50.0057 24.6941 50.294 24.608C50.5857 24.5185 50.8492 24.3875 51.0845 24.2152C51.3198 24.0429 51.5187 23.8324 51.6811 23.5838C51.8468 23.3319 51.9612 23.0436 52.0241 22.7188L53.5753 22.7237C53.4924 23.2242 53.3317 23.6849 53.093 24.1058C52.8577 24.5234 52.5545 24.8847 52.1832 25.1896C51.8153 25.4912 51.3944 25.7249 50.9205 25.8906C50.4465 26.0563 49.9295 26.1392 49.3693 26.1392C48.4877 26.1392 47.7022 25.9304 47.0128 25.5128C46.3234 25.0919 45.7798 24.4903 45.3821 23.7081C44.9877 22.9259 44.7905 21.9929 44.7905 20.9091C44.7905 19.822 44.9893 18.889 45.3871 18.1101C45.7848 17.3279 46.3284 16.728 47.0178 16.3104C47.7071 15.8894 48.491 15.679 49.3693 15.679C49.9096 15.679 50.4134 15.7569 50.8807 15.9126C51.3513 16.0651 51.7739 16.2905 52.1484 16.5888C52.523 16.8838 52.8329 17.245 53.0781 17.6726C53.3234 18.0968 53.4891 18.5824 53.5753 19.1293ZM55.2942 26V18.3636H56.731V19.5767H56.8105C56.9498 19.1657 57.195 18.8426 57.5463 18.6072C57.901 18.3686 58.302 18.2493 58.7495 18.2493C58.8423 18.2493 58.9516 18.2526 59.0776 18.2592C59.2069 18.2659 59.3079 18.2741 59.3809 18.2841V19.706C59.3212 19.6894 59.2151 19.6712 59.0627 19.6513C58.9102 19.6281 58.7578 19.6165 58.6053 19.6165C58.254 19.6165 57.9408 19.6911 57.6657 19.8402C57.3939 19.986 57.1784 20.1899 57.0194 20.4517C56.8603 20.7102 56.7807 21.0052 56.7807 21.3366V26H55.2942ZM63.685 26.1541C62.9326 26.1541 62.2847 25.9934 61.7411 25.6719C61.2009 25.3471 60.7833 24.8913 60.4883 24.3047C60.1966 23.7147 60.0508 23.0237 60.0508 22.2315C60.0508 21.4493 60.1966 20.7599 60.4883 20.1634C60.7833 19.5668 61.1942 19.1011 61.7212 18.7663C62.2515 18.4316 62.8713 18.2642 63.5806 18.2642C64.0115 18.2642 64.4291 18.3355 64.8335 18.478C65.2378 18.6205 65.6007 18.8442 65.9222 19.1491C66.2437 19.4541 66.4973 19.8501 66.6829 20.3374C66.8685 20.8213 66.9613 21.4096 66.9613 22.1023V22.6293H60.891V21.5156H65.5046C65.5046 21.1245 65.4251 20.7782 65.266 20.4766C65.1069 20.1716 64.8832 19.9313 64.5948 19.7557C64.3098 19.58 63.975 19.4922 63.5906 19.4922C63.1729 19.4922 62.8084 19.5949 62.4968 19.8004C62.1886 20.0026 61.9499 20.2678 61.7809 20.5959C61.6152 20.9207 61.5323 21.2737 61.5323 21.6548V22.5249C61.5323 23.0353 61.6218 23.4695 61.8008 23.8274C61.9831 24.1854 62.2366 24.4588 62.5614 24.6477C62.8862 24.8333 63.2657 24.9261 63.6999 24.9261C63.9817 24.9261 64.2385 24.8864 64.4705 24.8068C64.7025 24.724 64.9031 24.6013 65.0721 24.4389C65.2411 24.2765 65.3704 24.076 65.4599 23.8374L66.8668 24.0909C66.7541 24.5052 66.552 24.8681 66.2603 25.1797C65.9719 25.4879 65.609 25.7282 65.1715 25.9006C64.7373 26.0696 64.2418 26.1541 63.685 26.1541ZM70.8329 26.169C70.349 26.169 69.9115 26.0795 69.5204 25.9006C69.1293 25.7183 68.8194 25.4548 68.5907 25.1101C68.3654 24.7654 68.2527 24.3428 68.2527 23.8423C68.2527 23.4115 68.3355 23.0568 68.5012 22.7784C68.667 22.5 68.8907 22.2796 69.1724 22.1172C69.4541 21.9548 69.769 21.8321 70.117 21.7493C70.465 21.6664 70.8197 21.6035 71.1809 21.5604C71.6383 21.5073 72.0095 21.4643 72.2946 21.4311C72.5796 21.3946 72.7868 21.3366 72.916 21.2571C73.0453 21.1776 73.1099 21.0483 73.1099 20.8693V20.8345C73.1099 20.4003 72.9873 20.0639 72.742 19.8253C72.5001 19.5866 72.1388 19.4673 71.6582 19.4673C71.1577 19.4673 70.7633 19.5784 70.475 19.8004C70.1899 20.0192 69.9927 20.2628 69.8833 20.5312L68.4863 20.2131C68.652 19.7491 68.894 19.3745 69.2122 19.0895C69.5337 18.8011 69.9032 18.5923 70.3208 18.4631C70.7385 18.3305 71.1776 18.2642 71.6383 18.2642C71.9432 18.2642 72.2664 18.3007 72.6078 18.3736C72.9525 18.4432 73.274 18.5724 73.5723 18.7614C73.8739 18.9503 74.1208 19.2204 74.313 19.5717C74.5053 19.9197 74.6014 20.3722 74.6014 20.929V26H73.1497V24.956H73.09C72.9939 25.1482 72.8497 25.3371 72.6575 25.5227C72.4653 25.7083 72.2183 25.8625 71.9167 25.9851C71.6151 26.1077 71.2538 26.169 70.8329 26.169ZM71.1561 24.9759C71.5671 24.9759 71.9184 24.8946 72.21 24.7322C72.505 24.5698 72.7288 24.3577 72.8812 24.0959C73.037 23.8307 73.1149 23.5473 73.1149 23.2457V22.2614C73.0618 22.3144 72.9591 22.3641 72.8066 22.4105C72.6575 22.4536 72.4868 22.4917 72.2946 22.5249C72.1023 22.5547 71.9151 22.5829 71.7328 22.6094C71.5505 22.6326 71.398 22.6525 71.2754 22.669C70.987 22.7055 70.7235 22.7668 70.4849 22.853C70.2496 22.9392 70.0607 23.0634 69.9181 23.2259C69.7789 23.3849 69.7093 23.5971 69.7093 23.8622C69.7093 24.2301 69.8452 24.5085 70.117 24.6974C70.3888 24.883 70.7351 24.9759 71.1561 24.9759ZM80.146 18.3636V19.5568H75.9748V18.3636H80.146ZM77.0934 16.5341H78.5799V23.7578C78.5799 24.0462 78.623 24.2633 78.7092 24.4091C78.7953 24.5516 78.9064 24.6494 79.0423 24.7024C79.1815 24.7521 79.3323 24.777 79.4947 24.777C79.614 24.777 79.7184 24.7687 79.8079 24.7521C79.8974 24.7356 79.967 24.7223 80.0167 24.7124L80.2852 25.9403C80.199 25.9735 80.0763 26.0066 79.9173 26.0398C79.7582 26.0762 79.5593 26.0961 79.3207 26.0994C78.9296 26.1061 78.565 26.0365 78.2269 25.8906C77.8888 25.7448 77.6154 25.5194 77.4066 25.2145C77.1978 24.9096 77.0934 24.5268 77.0934 24.0661V16.5341ZM84.9995 26.1541C84.2471 26.1541 83.5991 25.9934 83.0556 25.6719C82.5153 25.3471 82.0977 24.8913 81.8027 24.3047C81.5111 23.7147 81.3652 23.0237 81.3652 22.2315C81.3652 21.4493 81.5111 20.7599 81.8027 20.1634C82.0977 19.5668 82.5087 19.1011 83.0357 18.7663C83.566 18.4316 84.1858 18.2642 84.8951 18.2642C85.3259 18.2642 85.7435 18.3355 86.1479 18.478C86.5523 18.6205 86.9152 18.8442 87.2367 19.1491C87.5582 19.4541 87.8117 19.8501 87.9973 20.3374C88.1829 20.8213 88.2757 21.4096 88.2757 22.1023V22.6293H82.2054V21.5156H86.8191C86.8191 21.1245 86.7395 20.7782 86.5804 20.4766C86.4213 20.1716 86.1976 19.9313 85.9093 19.7557C85.6242 19.58 85.2895 19.4922 84.905 19.4922C84.4874 19.4922 84.1228 19.5949 83.8113 19.8004C83.503 20.0026 83.2644 20.2678 83.0953 20.5959C82.9296 20.9207 82.8468 21.2737 82.8468 21.6548V22.5249C82.8468 23.0353 82.9363 23.4695 83.1152 23.8274C83.2975 24.1854 83.5511 24.4588 83.8759 24.6477C84.2007 24.8333 84.5802 24.9261 85.0144 24.9261C85.2961 24.9261 85.553 24.8864 85.785 24.8068C86.017 24.724 86.2175 24.6013 86.3865 24.4389C86.5556 24.2765 86.6848 24.076 86.7743 23.8374L88.1813 24.0909C88.0686 24.5052 87.8664 24.8681 87.5748 25.1797C87.2864 25.4879 86.9235 25.7282 86.486 25.9006C86.0518 26.0696 85.5563 26.1541 84.9995 26.1541ZM101.968 15.8182V26H100.556L95.3801 18.5327H95.2857V26H93.7495V15.8182H95.1713L100.352 23.2955H100.446V15.8182H101.968ZM107.38 26.1541C106.628 26.1541 105.98 25.9934 105.436 25.6719C104.896 25.3471 104.479 24.8913 104.184 24.3047C103.892 23.7147 103.746 23.0237 103.746 22.2315C103.746 21.4493 103.892 20.7599 104.184 20.1634C104.479 19.5668 104.89 19.1011 105.417 18.7663C105.947 18.4316 106.567 18.2642 107.276 18.2642C107.707 18.2642 108.124 18.3355 108.529 18.478C108.933 18.6205 109.296 18.8442 109.618 19.1491C109.939 19.4541 110.193 19.8501 110.378 20.3374C110.564 20.8213 110.657 21.4096 110.657 22.1023V22.6293H104.586V21.5156H109.2C109.2 21.1245 109.12 20.7782 108.961 20.4766C108.802 20.1716 108.578 19.9313 108.29 19.7557C108.005 19.58 107.67 19.4922 107.286 19.4922C106.868 19.4922 106.504 19.5949 106.192 19.8004C105.884 20.0026 105.645 20.2678 105.476 20.5959C105.31 20.9207 105.228 21.2737 105.228 21.6548V22.5249C105.228 23.0353 105.317 23.4695 105.496 23.8274C105.678 24.1854 105.932 24.4588 106.257 24.6477C106.582 24.8333 106.961 24.9261 107.395 24.9261C107.677 24.9261 107.934 24.8864 108.166 24.8068C108.398 24.724 108.598 24.6013 108.767 24.4389C108.936 24.2765 109.066 24.076 109.155 23.8374L110.562 24.0909C110.449 24.5052 110.247 24.8681 109.956 25.1797C109.667 25.4879 109.304 25.7282 108.867 25.9006C108.433 26.0696 107.937 26.1541 107.38 26.1541ZM113.948 26L111.701 18.3636H113.237L114.733 23.9716H114.808L116.309 18.3636H117.846L119.337 23.9467H119.412L120.898 18.3636H122.434L120.192 26H118.676L117.125 20.4865H117.01L115.459 26H113.948ZM136.126 19.1293H134.575C134.515 18.7978 134.404 18.5062 134.242 18.2543C134.079 18.0024 133.881 17.7886 133.645 17.6129C133.41 17.4373 133.146 17.3047 132.855 17.2152C132.566 17.1257 132.26 17.081 131.935 17.081C131.348 17.081 130.823 17.2285 130.359 17.5234C129.898 17.8184 129.534 18.2509 129.265 18.821C129 19.3911 128.868 20.0871 128.868 20.9091C128.868 21.7377 129 22.437 129.265 23.0071C129.534 23.5772 129.9 24.008 130.364 24.2997C130.828 24.5914 131.35 24.7372 131.93 24.7372C132.252 24.7372 132.556 24.6941 132.845 24.608C133.136 24.5185 133.4 24.3875 133.635 24.2152C133.871 24.0429 134.069 23.8324 134.232 23.5838C134.398 23.3319 134.512 23.0436 134.575 22.7188L136.126 22.7237C136.043 23.2242 135.882 23.6849 135.644 24.1058C135.408 24.5234 135.105 24.8847 134.734 25.1896C134.366 25.4912 133.945 25.7249 133.471 25.8906C132.997 26.0563 132.48 26.1392 131.92 26.1392C131.038 26.1392 130.253 25.9304 129.564 25.5128C128.874 25.0919 128.331 24.4903 127.933 23.7081C127.538 22.9259 127.341 21.9929 127.341 20.9091C127.341 19.822 127.54 18.889 127.938 18.1101C128.336 17.3279 128.879 16.728 129.569 16.3104C130.258 15.8894 131.042 15.679 131.92 15.679C132.46 15.679 132.964 15.7569 133.431 15.9126C133.902 16.0651 134.325 16.2905 134.699 16.5888C135.074 16.8838 135.384 17.245 135.629 17.6726C135.874 18.0968 136.04 18.5824 136.126 19.1293ZM139.331 21.4659V26H137.845V15.8182H139.312V19.6065H139.406C139.585 19.1955 139.858 18.8691 140.226 18.6271C140.594 18.3852 141.075 18.2642 141.668 18.2642C142.192 18.2642 142.649 18.3719 143.04 18.5874C143.435 18.8028 143.74 19.1243 143.955 19.5518C144.174 19.9761 144.283 20.5064 144.283 21.1428V26H142.797V21.3217C142.797 20.7616 142.653 20.3274 142.364 20.0192C142.076 19.7076 141.675 19.5518 141.161 19.5518C140.81 19.5518 140.495 19.6264 140.216 19.7756C139.941 19.9247 139.724 20.1435 139.565 20.4318C139.409 20.7169 139.331 21.0616 139.331 21.4659ZM148.489 26.169C148.005 26.169 147.568 26.0795 147.177 25.9006C146.786 25.7183 146.476 25.4548 146.247 25.1101C146.022 24.7654 145.909 24.3428 145.909 23.8423C145.909 23.4115 145.992 23.0568 146.157 22.7784C146.323 22.5 146.547 22.2796 146.829 22.1172C147.11 21.9548 147.425 21.8321 147.773 21.7493C148.121 21.6664 148.476 21.6035 148.837 21.5604C149.295 21.5073 149.666 21.4643 149.951 21.4311C150.236 21.3946 150.443 21.3366 150.572 21.2571C150.702 21.1776 150.766 21.0483 150.766 20.8693V20.8345C150.766 20.4003 150.644 20.0639 150.398 19.8253C150.156 19.5866 149.795 19.4673 149.314 19.4673C148.814 19.4673 148.42 19.5784 148.131 19.8004C147.846 20.0192 147.649 20.2628 147.54 20.5312L146.143 20.2131C146.308 19.7491 146.55 19.3745 146.868 19.0895C147.19 18.8011 147.559 18.5923 147.977 18.4631C148.395 18.3305 148.834 18.2642 149.295 18.2642C149.599 18.2642 149.923 18.3007 150.264 18.3736C150.609 18.4432 150.93 18.5724 151.229 18.7614C151.53 18.9503 151.777 19.2204 151.969 19.5717C152.162 19.9197 152.258 20.3722 152.258 20.929V26H150.806V24.956H150.746C150.65 25.1482 150.506 25.3371 150.314 25.5227C150.122 25.7083 149.875 25.8625 149.573 25.9851C149.271 26.1077 148.91 26.169 148.489 26.169ZM148.812 24.9759C149.223 24.9759 149.575 24.8946 149.866 24.7322C150.161 24.5698 150.385 24.3577 150.537 24.0959C150.693 23.8307 150.771 23.5473 150.771 23.2457V22.2614C150.718 22.3144 150.615 22.3641 150.463 22.4105C150.314 22.4536 150.143 22.4917 149.951 22.5249C149.759 22.5547 149.571 22.5829 149.389 22.6094C149.207 22.6326 149.054 22.6525 148.932 22.669C148.643 22.7055 148.38 22.7668 148.141 22.853C147.906 22.9392 147.717 23.0634 147.574 23.2259C147.435 23.3849 147.366 23.5971 147.366 23.8622C147.366 24.2301 147.501 24.5085 147.773 24.6974C148.045 24.883 148.391 24.9759 148.812 24.9759ZM157.802 18.3636V19.5568H153.631V18.3636H157.802ZM154.75 16.5341H156.236V23.7578C156.236 24.0462 156.279 24.2633 156.365 24.4091C156.452 24.5516 156.563 24.6494 156.699 24.7024C156.838 24.7521 156.989 24.777 157.151 24.777C157.27 24.777 157.375 24.7687 157.464 24.7521C157.554 24.7356 157.623 24.7223 157.673 24.7124L157.941 25.9403C157.855 25.9735 157.733 26.0066 157.574 26.0398C157.414 26.0762 157.216 26.0961 156.977 26.0994C156.586 26.1061 156.221 26.0365 155.883 25.8906C155.545 25.7448 155.272 25.5194 155.063 25.2145C154.854 24.9096 154.75 24.5268 154.75 24.0661V16.5341Z" fill="black"/>
<path d="M53.5753 19.1293H52.0241C51.9645 18.7978 51.8535 18.5062 51.6911 18.2543C51.5286 18.0024 51.3298 17.7886 51.0945 17.6129C50.8591 17.4373 50.5956 17.3047 50.304 17.2152C50.0156 17.1257 49.709 17.081 49.3842 17.081C48.7976 17.081 48.2723 17.2285 47.8082 17.5234C47.3475 17.8184 46.983 18.2509 46.7145 18.821C46.4493 19.3911 46.3168 20.0871 46.3168 20.9091C46.3168 21.7377 46.4493 22.437 46.7145 23.0071C46.983 23.5772 47.3492 24.008 47.8132 24.2997C48.2772 24.5914 48.7992 24.7372 49.3793 24.7372C49.7008 24.7372 50.0057 24.6941 50.294 24.608C50.5857 24.5185 50.8492 24.3875 51.0845 24.2152C51.3198 24.0429 51.5187 23.8324 51.6811 23.5838C51.8468 23.3319 51.9612 23.0436 52.0241 22.7188L53.5753 22.7237C53.4924 23.2242 53.3317 23.6849 53.093 24.1058C52.8577 24.5234 52.5545 24.8847 52.1832 25.1896C51.8153 25.4912 51.3944 25.7249 50.9205 25.8906C50.4465 26.0563 49.9295 26.1392 49.3693 26.1392C48.4877 26.1392 47.7022 25.9304 47.0128 25.5128C46.3234 25.0919 45.7798 24.4903 45.3821 23.7081C44.9877 22.9259 44.7905 21.9929 44.7905 20.9091C44.7905 19.822 44.9893 18.889 45.3871 18.1101C45.7848 17.3279 46.3284 16.728 47.0178 16.3104C47.7071 15.8894 48.491 15.679 49.3693 15.679C49.9096 15.679 50.4134 15.7569 50.8807 15.9126C51.3513 16.0651 51.7739 16.2905 52.1484 16.5888C52.523 16.8838 52.8329 17.245 53.0781 17.6726C53.3234 18.0968 53.4891 18.5824 53.5753 19.1293ZM55.2942 26V18.3636H56.731V19.5767H56.8105C56.9498 19.1657 57.195 18.8426 57.5463 18.6072C57.901 18.3686 58.302 18.2493 58.7495 18.2493C58.8423 18.2493 58.9516 18.2526 59.0776 18.2592C59.2069 18.2659 59.3079 18.2741 59.3809 18.2841V19.706C59.3212 19.6894 59.2151 19.6712 59.0627 19.6513C58.9102 19.6281 58.7578 19.6165 58.6053 19.6165C58.254 19.6165 57.9408 19.6911 57.6657 19.8402C57.3939 19.986 57.1784 20.1899 57.0194 20.4517C56.8603 20.7102 56.7807 21.0052 56.7807 21.3366V26H55.2942ZM63.685 26.1541C62.9326 26.1541 62.2847 25.9934 61.7411 25.6719C61.2009 25.3471 60.7833 24.8913 60.4883 24.3047C60.1966 23.7147 60.0508 23.0237 60.0508 22.2315C60.0508 21.4493 60.1966 20.7599 60.4883 20.1634C60.7833 19.5668 61.1942 19.1011 61.7212 18.7663C62.2515 18.4316 62.8713 18.2642 63.5806 18.2642C64.0115 18.2642 64.4291 18.3355 64.8335 18.478C65.2378 18.6205 65.6007 18.8442 65.9222 19.1491C66.2437 19.4541 66.4973 19.8501 66.6829 20.3374C66.8685 20.8213 66.9613 21.4096 66.9613 22.1023V22.6293H60.891V21.5156H65.5046C65.5046 21.1245 65.4251 20.7782 65.266 20.4766C65.1069 20.1716 64.8832 19.9313 64.5948 19.7557C64.3098 19.58 63.975 19.4922 63.5906 19.4922C63.1729 19.4922 62.8084 19.5949 62.4968 19.8004C62.1886 20.0026 61.9499 20.2678 61.7809 20.5959C61.6152 20.9207 61.5323 21.2737 61.5323 21.6548V22.5249C61.5323 23.0353 61.6218 23.4695 61.8008 23.8274C61.9831 24.1854 62.2366 24.4588 62.5614 24.6477C62.8862 24.8333 63.2657 24.9261 63.6999 24.9261C63.9817 24.9261 64.2385 24.8864 64.4705 24.8068C64.7025 24.724 64.9031 24.6013 65.0721 24.4389C65.2411 24.2765 65.3704 24.076 65.4599 23.8374L66.8668 24.0909C66.7541 24.5052 66.552 24.8681 66.2603 25.1797C65.9719 25.4879 65.609 25.7282 65.1715 25.9006C64.7373 26.0696 64.2418 26.1541 63.685 26.1541ZM70.8329 26.169C70.349 26.169 69.9115 26.0795 69.5204 25.9006C69.1293 25.7183 68.8194 25.4548 68.5907 25.1101C68.3654 24.7654 68.2527 24.3428 68.2527 23.8423C68.2527 23.4115 68.3355 23.0568 68.5012 22.7784C68.667 22.5 68.8907 22.2796 69.1724 22.1172C69.4541 21.9548 69.769 21.8321 70.117 21.7493C70.465 21.6664 70.8197 21.6035 71.1809 21.5604C71.6383 21.5073 72.0095 21.4643 72.2946 21.4311C72.5796 21.3946 72.7868 21.3366 72.916 21.2571C73.0453 21.1776 73.1099 21.0483 73.1099 20.8693V20.8345C73.1099 20.4003 72.9873 20.0639 72.742 19.8253C72.5001 19.5866 72.1388 19.4673 71.6582 19.4673C71.1577 19.4673 70.7633 19.5784 70.475 19.8004C70.1899 20.0192 69.9927 20.2628 69.8833 20.5312L68.4863 20.2131C68.652 19.7491 68.894 19.3745 69.2122 19.0895C69.5337 18.8011 69.9032 18.5923 70.3208 18.4631C70.7385 18.3305 71.1776 18.2642 71.6383 18.2642C71.9432 18.2642 72.2664 18.3007 72.6078 18.3736C72.9525 18.4432 73.274 18.5724 73.5723 18.7614C73.8739 18.9503 74.1208 19.2204 74.313 19.5717C74.5053 19.9197 74.6014 20.3722 74.6014 20.929V26H73.1497V24.956H73.09C72.9939 25.1482 72.8497 25.3371 72.6575 25.5227C72.4653 25.7083 72.2183 25.8625 71.9167 25.9851C71.6151 26.1077 71.2538 26.169 70.8329 26.169ZM71.1561 24.9759C71.5671 24.9759 71.9184 24.8946 72.21 24.7322C72.505 24.5698 72.7288 24.3577 72.8812 24.0959C73.037 23.8307 73.1149 23.5473 73.1149 23.2457V22.2614C73.0618 22.3144 72.9591 22.3641 72.8066 22.4105C72.6575 22.4536 72.4868 22.4917 72.2946 22.5249C72.1023 22.5547 71.9151 22.5829 71.7328 22.6094C71.5505 22.6326 71.398 22.6525 71.2754 22.669C70.987 22.7055 70.7235 22.7668 70.4849 22.853C70.2496 22.9392 70.0607 23.0634 69.9181 23.2259C69.7789 23.3849 69.7093 23.5971 69.7093 23.8622C69.7093 24.2301 69.8452 24.5085 70.117 24.6974C70.3888 24.883 70.7351 24.9759 71.1561 24.9759ZM80.146 18.3636V19.5568H75.9748V18.3636H80.146ZM77.0934 16.5341H78.5799V23.7578C78.5799 24.0462 78.623 24.2633 78.7092 24.4091C78.7953 24.5516 78.9064 24.6494 79.0423 24.7024C79.1815 24.7521 79.3323 24.777 79.4947 24.777C79.614 24.777 79.7184 24.7687 79.8079 24.7521C79.8974 24.7356 79.967 24.7223 80.0167 24.7124L80.2852 25.9403C80.199 25.9735 80.0763 26.0066 79.9173 26.0398C79.7582 26.0762 79.5593 26.0961 79.3207 26.0994C78.9296 26.1061 78.565 26.0365 78.2269 25.8906C77.8888 25.7448 77.6154 25.5194 77.4066 25.2145C77.1978 24.9096 77.0934 24.5268 77.0934 24.0661V16.5341ZM84.9995 26.1541C84.2471 26.1541 83.5991 25.9934 83.0556 25.6719C82.5153 25.3471 82.0977 24.8913 81.8027 24.3047C81.5111 23.7147 81.3652 23.0237 81.3652 22.2315C81.3652 21.4493 81.5111 20.7599 81.8027 20.1634C82.0977 19.5668 82.5087 19.1011 83.0357 18.7663C83.566 18.4316 84.1858 18.2642 84.8951 18.2642C85.3259 18.2642 85.7435 18.3355 86.1479 18.478C86.5523 18.6205 86.9152 18.8442 87.2367 19.1491C87.5582 19.4541 87.8117 19.8501 87.9973 20.3374C88.1829 20.8213 88.2757 21.4096 88.2757 22.1023V22.6293H82.2054V21.5156H86.8191C86.8191 21.1245 86.7395 20.7782 86.5804 20.4766C86.4213 20.1716 86.1976 19.9313 85.9093 19.7557C85.6242 19.58 85.2895 19.4922 84.905 19.4922C84.4874 19.4922 84.1228 19.5949 83.8113 19.8004C83.503 20.0026 83.2644 20.2678 83.0953 20.5959C82.9296 20.9207 82.8468 21.2737 82.8468 21.6548V22.5249C82.8468 23.0353 82.9363 23.4695 83.1152 23.8274C83.2975 24.1854 83.5511 24.4588 83.8759 24.6477C84.2007 24.8333 84.5802 24.9261 85.0144 24.9261C85.2961 24.9261 85.553 24.8864 85.785 24.8068C86.017 24.724 86.2175 24.6013 86.3865 24.4389C86.5556 24.2765 86.6848 24.076 86.7743 23.8374L88.1813 24.0909C88.0686 24.5052 87.8664 24.8681 87.5748 25.1797C87.2864 25.4879 86.9235 25.7282 86.486 25.9006C86.0518 26.0696 85.5563 26.1541 84.9995 26.1541ZM101.968 15.8182V26H100.556L95.3801 18.5327H95.2857V26H93.7495V15.8182H95.1713L100.352 23.2955H100.446V15.8182H101.968ZM107.38 26.1541C106.628 26.1541 105.98 25.9934 105.436 25.6719C104.896 25.3471 104.479 24.8913 104.184 24.3047C103.892 23.7147 103.746 23.0237 103.746 22.2315C103.746 21.4493 103.892 20.7599 104.184 20.1634C104.479 19.5668 104.89 19.1011 105.417 18.7663C105.947 18.4316 106.567 18.2642 107.276 18.2642C107.707 18.2642 108.124 18.3355 108.529 18.478C108.933 18.6205 109.296 18.8442 109.618 19.1491C109.939 19.4541 110.193 19.8501 110.378 20.3374C110.564 20.8213 110.657 21.4096 110.657 22.1023V22.6293H104.586V21.5156H109.2C109.2 21.1245 109.12 20.7782 108.961 20.4766C108.802 20.1716 108.578 19.9313 108.29 19.7557C108.005 19.58 107.67 19.4922 107.286 19.4922C106.868 19.4922 106.504 19.5949 106.192 19.8004C105.884 20.0026 105.645 20.2678 105.476 20.5959C105.31 20.9207 105.228 21.2737 105.228 21.6548V22.5249C105.228 23.0353 105.317 23.4695 105.496 23.8274C105.678 24.1854 105.932 24.4588 106.257 24.6477C106.582 24.8333 106.961 24.9261 107.395 24.9261C107.677 24.9261 107.934 24.8864 108.166 24.8068C108.398 24.724 108.598 24.6013 108.767 24.4389C108.936 24.2765 109.066 24.076 109.155 23.8374L110.562 24.0909C110.449 24.5052 110.247 24.8681 109.956 25.1797C109.667 25.4879 109.304 25.7282 108.867 25.9006C108.433 26.0696 107.937 26.1541 107.38 26.1541ZM113.948 26L111.701 18.3636H113.237L114.733 23.9716H114.808L116.309 18.3636H117.846L119.337 23.9467H119.412L120.898 18.3636H122.434L120.192 26H118.676L117.125 20.4865H117.01L115.459 26H113.948ZM136.126 19.1293H134.575C134.515 18.7978 134.404 18.5062 134.242 18.2543C134.079 18.0024 133.881 17.7886 133.645 17.6129C133.41 17.4373 133.146 17.3047 132.855 17.2152C132.566 17.1257 132.26 17.081 131.935 17.081C131.348 17.081 130.823 17.2285 130.359 17.5234C129.898 17.8184 129.534 18.2509 129.265 18.821C129 19.3911 128.868 20.0871 128.868 20.9091C128.868 21.7377 129 22.437 129.265 23.0071C129.534 23.5772 129.9 24.008 130.364 24.2997C130.828 24.5914 131.35 24.7372 131.93 24.7372C132.252 24.7372 132.556 24.6941 132.845 24.608C133.136 24.5185 133.4 24.3875 133.635 24.2152C133.871 24.0429 134.069 23.8324 134.232 23.5838C134.398 23.3319 134.512 23.0436 134.575 22.7188L136.126 22.7237C136.043 23.2242 135.882 23.6849 135.644 24.1058C135.408 24.5234 135.105 24.8847 134.734 25.1896C134.366 25.4912 133.945 25.7249 133.471 25.8906C132.997 26.0563 132.48 26.1392 131.92 26.1392C131.038 26.1392 130.253 25.9304 129.564 25.5128C128.874 25.0919 128.331 24.4903 127.933 23.7081C127.538 22.9259 127.341 21.9929 127.341 20.9091C127.341 19.822 127.54 18.889 127.938 18.1101C128.336 17.3279 128.879 16.728 129.569 16.3104C130.258 15.8894 131.042 15.679 131.92 15.679C132.46 15.679 132.964 15.7569 133.431 15.9126C133.902 16.0651 134.325 16.2905 134.699 16.5888C135.074 16.8838 135.384 17.245 135.629 17.6726C135.874 18.0968 136.04 18.5824 136.126 19.1293ZM139.331 21.4659V26H137.845V15.8182H139.312V19.6065H139.406C139.585 19.1955 139.858 18.8691 140.226 18.6271C140.594 18.3852 141.075 18.2642 141.668 18.2642C142.192 18.2642 142.649 18.3719 143.04 18.5874C143.435 18.8028 143.74 19.1243 143.955 19.5518C144.174 19.9761 144.283 20.5064 144.283 21.1428V26H142.797V21.3217C142.797 20.7616 142.653 20.3274 142.364 20.0192C142.076 19.7076 141.675 19.5518 141.161 19.5518C140.81 19.5518 140.495 19.6264 140.216 19.7756C139.941 19.9247 139.724 20.1435 139.565 20.4318C139.409 20.7169 139.331 21.0616 139.331 21.4659ZM148.489 26.169C148.005 26.169 147.568 26.0795 147.177 25.9006C146.786 25.7183 146.476 25.4548 146.247 25.1101C146.022 24.7654 145.909 24.3428 145.909 23.8423C145.909 23.4115 145.992 23.0568 146.157 22.7784C146.323 22.5 146.547 22.2796 146.829 22.1172C147.11 21.9548 147.425 21.8321 147.773 21.7493C148.121 21.6664 148.476 21.6035 148.837 21.5604C149.295 21.5073 149.666 21.4643 149.951 21.4311C150.236 21.3946 150.443 21.3366 150.572 21.2571C150.702 21.1776 150.766 21.0483 150.766 20.8693V20.8345C150.766 20.4003 150.644 20.0639 150.398 19.8253C150.156 19.5866 149.795 19.4673 149.314 19.4673C148.814 19.4673 148.42 19.5784 148.131 19.8004C147.846 20.0192 147.649 20.2628 147.54 20.5312L146.143 20.2131C146.308 19.7491 146.55 19.3745 146.868 19.0895C147.19 18.8011 147.559 18.5923 147.977 18.4631C148.395 18.3305 148.834 18.2642 149.295 18.2642C149.599 18.2642 149.923 18.3007 150.264 18.3736C150.609 18.4432 150.93 18.5724 151.229 18.7614C151.53 18.9503 151.777 19.2204 151.969 19.5717C152.162 19.9197 152.258 20.3722 152.258 20.929V26H150.806V24.956H150.746C150.65 25.1482 150.506 25.3371 150.314 25.5227C150.122 25.7083 149.875 25.8625 149.573 25.9851C149.271 26.1077 148.91 26.169 148.489 26.169ZM148.812 24.9759C149.223 24.9759 149.575 24.8946 149.866 24.7322C150.161 24.5698 150.385 24.3577 150.537 24.0959C150.693 23.8307 150.771 23.5473 150.771 23.2457V22.2614C150.718 22.3144 150.615 22.3641 150.463 22.4105C150.314 22.4536 150.143 22.4917 149.951 22.5249C149.759 22.5547 149.571 22.5829 149.389 22.6094C149.207 22.6326 149.054 22.6525 148.932 22.669C148.643 22.7055 148.38 22.7668 148.141 22.853C147.906 22.9392 147.717 23.0634 147.574 23.2259C147.435 23.3849 147.366 23.5971 147.366 23.8622C147.366 24.2301 147.501 24.5085 147.773 24.6974C148.045 24.883 148.391 24.9759 148.812 24.9759ZM157.802 18.3636V19.5568H153.631V18.3636H157.802ZM154.75 16.5341H156.236V23.7578C156.236 24.0462 156.279 24.2633 156.365 24.4091C156.452 24.5516 156.563 24.6494 156.699 24.7024C156.838 24.7521 156.989 24.777 157.151 24.777C157.27 24.777 157.375 24.7687 157.464 24.7521C157.554 24.7356 157.623 24.7223 157.673 24.7124L157.941 25.9403C157.855 25.9735 157.733 26.0066 157.574 26.0398C157.414 26.0762 157.216 26.0961 156.977 26.0994C156.586 26.1061 156.221 26.0365 155.883 25.8906C155.545 25.7448 155.272 25.5194 155.063 25.2145C154.854 24.9096 154.75 24.5268 154.75 24.0661V16.5341Z" fill="url(#paint2_linear_121_126)"/>
<defs>
<linearGradient id="paint0_linear_121_126" x1="-19.1579" y1="-12.9474" x2="-0.689359" y2="106.932" gradientUnits="userSpaceOnUse">
<stop stop-color="#B75397"/>
<stop offset="1" stop-color="#5F46CC"/>
</linearGradient>
<linearGradient id="paint1_linear_121_126" x1="24.7368" y1="10.7105" x2="41.4737" y2="35.1842" gradientUnits="userSpaceOnUse">
<stop stop-color="#B75397"/>
<stop offset="1" stop-color="#5F46CC"/>
</linearGradient>
<linearGradient id="paint2_linear_121_126" x1="31.8947" y1="6.63158" x2="36.987" y2="57.0028" gradientUnits="userSpaceOnUse">
<stop stop-color="#B75397"/>
<stop offset="1" stop-color="#5F46CC"/>
</linearGradient>
</defs>
</svg>
