<svg width="861" height="284" viewBox="0 0 861 284" fill="none" xmlns="http://www.w3.org/2000/svg">
<rect width="861" height="284" rx="18" fill="#F9F9F9"/>
<path d="M24.9377 263.393C22.9822 262.582 21.418 261.018 20.607 259.062L21.0689 258.871C20.7025 257.987 20.5 257.018 20.5 256V250.818H20V240.454H20.5V230.091H20V219.727H20.5V209.364H20V199H20.5V188.636H20V178.273H20.5V167.909H20V157.545H20.5V147.182H20V136.818H20.5V126.455H20V116.091H20.5V105.727H20V95.3636H20.5V85H20V74.6364H20.5V64.2727H20V53.9091H20.5V43.5455H20V33.1818H20.5V28C20.5 26.9821 20.7025 26.0128 21.0689 25.1292L20.607 24.9377C21.418 22.9822 22.9822 21.418 24.9377 20.607L25.1292 21.0689C26.0128 20.7025 26.9821 20.5 28 20.5H33.0313V20H43.0938V20.5H53.1562V20H63.2187V20.5H73.2812V20H83.3438V20.5H93.4063V20H103.469V20.5H113.531V20H123.594V20.5H133.656V20H143.719V20.5H153.781V20H163.844V20.5H173.906V20H183.969V20.5H194.031V20H204.094V20.5H214.156V20H224.219V20.5H234.281V20H244.344V20.5H254.406V20H264.469V20.5H274.531V20H284.594V20.5H294.656V20H304.719V20.5H314.781V20H324.844V20.5H334.906V20H344.969V20.5H355.031V20H365.094V20.5H375.156V20H385.219V20.5H395.281V20H405.344V20.5H415.406V20H425.469V20.5H435.531V20H445.594V20.5H455.656V20H465.719V20.5H475.781V20H485.844V20.5H495.906V20H505.969V20.5H516.031V20H526.094V20.5H536.156V20H546.219V20.5H556.281V20H566.344V20.5H576.406V20H586.469V20.5H596.531V20H606.594V20.5H616.656V20H626.719V20.5H636.781V20H646.844V20.5H656.906V20H666.969V20.5H677.031V20H687.094V20.5H697.156V20H707.219V20.5H717.281V20H727.344V20.5H737.406V20H747.469V20.5H757.531V20H767.594V20.5H777.656V20H787.719V20.5H797.781V20H807.844V20.5H817.906V20H827.969V20.5H833C834.018 20.5 834.987 20.7025 835.871 21.0689L836.062 20.607C838.018 21.418 839.582 22.9822 840.393 24.9377L839.931 25.1292C840.297 26.0128 840.5 26.9821 840.5 28V33.1819H841V43.5455H840.5V53.9091H841V64.2728H840.5V74.6364H841V85H840.5V95.3637H841V105.727H840.5V116.091H841V126.455H840.5V136.818H841V147.182H840.5V157.545H841V167.909H840.5V178.273H841V188.636H840.5V199H841V209.364H840.5V219.727H841V230.091H840.5V240.455H841V250.818H840.5V256C840.5 257.018 840.297 257.987 839.931 258.871L840.393 259.062C839.582 261.018 838.018 262.582 836.062 263.393L835.871 262.931C834.987 263.298 834.018 263.5 833 263.5H827.969V264H817.906V263.5H807.844V264H797.781V263.5H787.719V264H777.656V263.5H767.594V264H757.531V263.5H747.469V264H737.406V263.5H727.344V264H717.281V263.5H707.219V264H697.156V263.5H687.094V264H677.031V263.5H666.969V264H656.906V263.5H646.844V264H636.781V263.5H626.719V264H616.656V263.5H606.594V264H596.531V263.5H586.469V264H576.406V263.5H566.344V264H556.281V263.5H546.219V264H536.156V263.5H526.094V264H516.031V263.5H505.969V264H495.906V263.5H485.844V264H475.781V263.5H465.719V264H455.656V263.5H445.594V264H435.531V263.5H425.469V264H415.406V263.5H405.344V264H395.281V263.5H385.219V264H375.156V263.5H365.094V264H355.031V263.5H344.969V264H334.906V263.5H324.844V264H314.781V263.5H304.719V264H294.656V263.5H284.594V264H274.531V263.5H264.469V264H254.406V263.5H244.344V264H234.281V263.5H224.219V264H214.156V263.5H204.094V264H194.031V263.5H183.969V264H173.906V263.5H163.844V264H153.781V263.5H143.719V264H133.656V263.5H123.594V264H113.531V263.5H103.469V264H93.4063V263.5H83.3438V264H73.2813V263.5H63.2188V264H53.1563V263.5H43.0938V264H33.0313V263.5H28C26.9822 263.5 26.0128 263.298 25.1292 262.931L24.9377 263.393Z" stroke="black" stroke-dasharray="10 10"/>
<path d="M24.9377 263.393C22.9822 262.582 21.418 261.018 20.607 259.062L21.0689 258.871C20.7025 257.987 20.5 257.018 20.5 256V250.818H20V240.454H20.5V230.091H20V219.727H20.5V209.364H20V199H20.5V188.636H20V178.273H20.5V167.909H20V157.545H20.5V147.182H20V136.818H20.5V126.455H20V116.091H20.5V105.727H20V95.3636H20.5V85H20V74.6364H20.5V64.2727H20V53.9091H20.5V43.5455H20V33.1818H20.5V28C20.5 26.9821 20.7025 26.0128 21.0689 25.1292L20.607 24.9377C21.418 22.9822 22.9822 21.418 24.9377 20.607L25.1292 21.0689C26.0128 20.7025 26.9821 20.5 28 20.5H33.0313V20H43.0938V20.5H53.1562V20H63.2187V20.5H73.2812V20H83.3438V20.5H93.4063V20H103.469V20.5H113.531V20H123.594V20.5H133.656V20H143.719V20.5H153.781V20H163.844V20.5H173.906V20H183.969V20.5H194.031V20H204.094V20.5H214.156V20H224.219V20.5H234.281V20H244.344V20.5H254.406V20H264.469V20.5H274.531V20H284.594V20.5H294.656V20H304.719V20.5H314.781V20H324.844V20.5H334.906V20H344.969V20.5H355.031V20H365.094V20.5H375.156V20H385.219V20.5H395.281V20H405.344V20.5H415.406V20H425.469V20.5H435.531V20H445.594V20.5H455.656V20H465.719V20.5H475.781V20H485.844V20.5H495.906V20H505.969V20.5H516.031V20H526.094V20.5H536.156V20H546.219V20.5H556.281V20H566.344V20.5H576.406V20H586.469V20.5H596.531V20H606.594V20.5H616.656V20H626.719V20.5H636.781V20H646.844V20.5H656.906V20H666.969V20.5H677.031V20H687.094V20.5H697.156V20H707.219V20.5H717.281V20H727.344V20.5H737.406V20H747.469V20.5H757.531V20H767.594V20.5H777.656V20H787.719V20.5H797.781V20H807.844V20.5H817.906V20H827.969V20.5H833C834.018 20.5 834.987 20.7025 835.871 21.0689L836.062 20.607C838.018 21.418 839.582 22.9822 840.393 24.9377L839.931 25.1292C840.297 26.0128 840.5 26.9821 840.5 28V33.1819H841V43.5455H840.5V53.9091H841V64.2728H840.5V74.6364H841V85H840.5V95.3637H841V105.727H840.5V116.091H841V126.455H840.5V136.818H841V147.182H840.5V157.545H841V167.909H840.5V178.273H841V188.636H840.5V199H841V209.364H840.5V219.727H841V230.091H840.5V240.455H841V250.818H840.5V256C840.5 257.018 840.297 257.987 839.931 258.871L840.393 259.062C839.582 261.018 838.018 262.582 836.062 263.393L835.871 262.931C834.987 263.298 834.018 263.5 833 263.5H827.969V264H817.906V263.5H807.844V264H797.781V263.5H787.719V264H777.656V263.5H767.594V264H757.531V263.5H747.469V264H737.406V263.5H727.344V264H717.281V263.5H707.219V264H697.156V263.5H687.094V264H677.031V263.5H666.969V264H656.906V263.5H646.844V264H636.781V263.5H626.719V264H616.656V263.5H606.594V264H596.531V263.5H586.469V264H576.406V263.5H566.344V264H556.281V263.5H546.219V264H536.156V263.5H526.094V264H516.031V263.5H505.969V264H495.906V263.5H485.844V264H475.781V263.5H465.719V264H455.656V263.5H445.594V264H435.531V263.5H425.469V264H415.406V263.5H405.344V264H395.281V263.5H385.219V264H375.156V263.5H365.094V264H355.031V263.5H344.969V264H334.906V263.5H324.844V264H314.781V263.5H304.719V264H294.656V263.5H284.594V264H274.531V263.5H264.469V264H254.406V263.5H244.344V264H234.281V263.5H224.219V264H214.156V263.5H204.094V264H194.031V263.5H183.969V264H173.906V263.5H163.844V264H153.781V263.5H143.719V264H133.656V263.5H123.594V264H113.531V263.5H103.469V264H93.4063V263.5H83.3438V264H73.2813V263.5H63.2188V264H53.1563V263.5H43.0938V264H33.0313V263.5H28C26.9822 263.5 26.0128 263.298 25.1292 262.931L24.9377 263.393Z" stroke="url(#paint0_linear_5_6)" stroke-dasharray="10 10"/>
<path d="M454 113.963V143.667C454 145.876 452.209 147.667 450 147.667H410C407.791 147.667 406 145.876 406 143.667V98.3333C406 96.1242 407.791 94.3333 410 94.3333H433.857" stroke="#28303F" stroke-width="2.5" stroke-linecap="round" stroke-linejoin="round"/>
<path d="M454 113.963V143.667C454 145.876 452.209 147.667 450 147.667H410C407.791 147.667 406 145.876 406 143.667V98.3333C406 96.1242 407.791 94.3333 410 94.3333H433.857" stroke="url(#paint1_linear_5_6)" stroke-width="2.5" stroke-linecap="round" stroke-linejoin="round"/>
<path d="M419.333 107.667H430" stroke="#28303F" stroke-width="2.5" stroke-linecap="round"/>
<path d="M419.333 107.667H430" stroke="url(#paint2_linear_5_6)" stroke-width="2.5" stroke-linecap="round"/>
<path d="M419.333 121H440.667" stroke="#28303F" stroke-width="2.5" stroke-linecap="round"/>
<path d="M419.333 121H440.667" stroke="url(#paint3_linear_5_6)" stroke-width="2.5" stroke-linecap="round"/>
<path d="M419.333 134.333H440.667" stroke="#28303F" stroke-width="2.5" stroke-linecap="round"/>
<path d="M419.333 134.333H440.667" stroke="url(#paint4_linear_5_6)" stroke-width="2.5" stroke-linecap="round"/>
<path d="M446 94.3333V110.333" stroke="#28303F" stroke-width="2.5" stroke-linecap="round"/>
<path d="M446 94.3333V110.333" stroke="url(#paint5_linear_5_6)" stroke-width="2.5" stroke-linecap="round"/>
<path d="M454 102.333L438 102.333" stroke="#28303F" stroke-width="2.5" stroke-linecap="round"/>
<path d="M454 102.333L438 102.333" stroke="url(#paint6_linear_5_6)" stroke-width="2.5" stroke-linecap="round"/>
<path d="M319.375 191H316.233V180.818H319.514C320.502 180.818 321.347 181.022 322.05 181.43C322.752 181.834 323.291 182.416 323.665 183.175C324.04 183.93 324.227 184.835 324.227 185.889C324.227 186.95 324.038 187.863 323.661 188.629C323.283 189.391 322.732 189.978 322.01 190.388C321.287 190.796 320.409 191 319.375 191ZM317.466 189.906H319.295C320.137 189.906 320.835 189.744 321.388 189.419C321.942 189.094 322.355 188.632 322.626 188.032C322.898 187.432 323.034 186.718 323.034 185.889C323.034 185.067 322.9 184.36 322.631 183.766C322.363 183.17 321.962 182.712 321.428 182.394C320.895 182.073 320.23 181.912 319.435 181.912H317.466V189.906ZM326.136 191V183.364H327.27V184.517H327.349C327.489 184.139 327.741 183.833 328.105 183.597C328.47 183.362 328.881 183.244 329.338 183.244C329.424 183.244 329.532 183.246 329.661 183.249C329.79 183.253 329.888 183.258 329.955 183.264V184.457C329.915 184.447 329.824 184.433 329.681 184.413C329.542 184.389 329.394 184.378 329.239 184.378C328.867 184.378 328.536 184.456 328.244 184.612C327.956 184.764 327.727 184.976 327.558 185.248C327.393 185.516 327.31 185.823 327.31 186.168V191H326.136ZM333.593 191.179C333.109 191.179 332.669 191.088 332.275 190.906C331.881 190.72 331.567 190.453 331.335 190.105C331.103 189.754 330.987 189.33 330.987 188.832C330.987 188.395 331.074 188.04 331.246 187.768C331.418 187.493 331.649 187.278 331.937 187.122C332.225 186.966 332.544 186.85 332.892 186.774C333.243 186.695 333.596 186.632 333.95 186.585C334.414 186.526 334.791 186.481 335.079 186.451C335.371 186.418 335.583 186.363 335.715 186.287C335.851 186.211 335.919 186.078 335.919 185.889V185.849C335.919 185.359 335.785 184.978 335.517 184.706C335.251 184.434 334.849 184.298 334.308 184.298C333.748 184.298 333.309 184.421 332.991 184.666C332.673 184.911 332.449 185.173 332.32 185.452L331.206 185.054C331.405 184.59 331.67 184.229 332.002 183.97C332.336 183.708 332.701 183.526 333.095 183.423C333.493 183.317 333.884 183.264 334.269 183.264C334.514 183.264 334.796 183.294 335.114 183.354C335.435 183.41 335.745 183.528 336.044 183.707C336.345 183.886 336.595 184.156 336.794 184.517C336.993 184.878 337.093 185.362 337.093 185.969V191H335.919V189.966H335.86C335.78 190.132 335.647 190.309 335.462 190.498C335.276 190.687 335.029 190.848 334.721 190.98C334.413 191.113 334.037 191.179 333.593 191.179ZM333.771 190.125C334.235 190.125 334.627 190.034 334.945 189.852C335.266 189.669 335.508 189.434 335.671 189.146C335.836 188.857 335.919 188.554 335.919 188.236V187.162C335.869 187.222 335.76 187.276 335.591 187.326C335.425 187.372 335.233 187.414 335.014 187.45C334.799 187.483 334.588 187.513 334.383 187.54C334.181 187.563 334.017 187.583 333.891 187.599C333.586 187.639 333.301 187.704 333.036 187.793C332.774 187.879 332.562 188.01 332.399 188.186C332.24 188.358 332.161 188.594 332.161 188.892C332.161 189.3 332.311 189.608 332.613 189.817C332.918 190.022 333.304 190.125 333.771 190.125ZM342.316 194.023C341.75 194.023 341.262 193.95 340.855 193.804C340.447 193.661 340.107 193.473 339.836 193.237C339.567 193.005 339.353 192.757 339.194 192.491L340.129 191.835C340.235 191.974 340.369 192.134 340.532 192.312C340.694 192.495 340.916 192.652 341.198 192.785C341.483 192.921 341.856 192.989 342.316 192.989C342.933 192.989 343.442 192.839 343.843 192.541C344.244 192.243 344.444 191.776 344.444 191.139V189.588H344.345C344.259 189.727 344.136 189.9 343.977 190.105C343.821 190.307 343.596 190.488 343.301 190.647C343.009 190.803 342.615 190.881 342.118 190.881C341.501 190.881 340.948 190.735 340.457 190.443C339.97 190.152 339.584 189.727 339.299 189.17C339.017 188.614 338.876 187.937 338.876 187.142C338.876 186.36 339.014 185.679 339.289 185.099C339.564 184.515 339.947 184.065 340.437 183.746C340.928 183.425 341.494 183.264 342.137 183.264C342.635 183.264 343.029 183.347 343.321 183.513C343.616 183.675 343.841 183.861 343.997 184.07C344.156 184.275 344.279 184.444 344.365 184.577H344.484V183.364H345.618V191.219C345.618 191.875 345.468 192.409 345.17 192.82C344.875 193.234 344.477 193.537 343.977 193.729C343.48 193.925 342.926 194.023 342.316 194.023ZM342.277 189.827C342.747 189.827 343.145 189.719 343.47 189.504C343.795 189.288 344.042 188.978 344.211 188.574C344.38 188.17 344.464 187.686 344.464 187.122C344.464 186.572 344.381 186.086 344.216 185.665C344.05 185.245 343.805 184.915 343.48 184.676C343.155 184.437 342.754 184.318 342.277 184.318C341.779 184.318 341.365 184.444 341.034 184.696C340.706 184.948 340.459 185.286 340.293 185.71C340.131 186.134 340.049 186.605 340.049 187.122C340.049 187.652 340.132 188.121 340.298 188.529C340.467 188.933 340.716 189.252 341.044 189.484C341.375 189.712 341.786 189.827 342.277 189.827ZM353.95 191.179C353.466 191.179 353.027 191.088 352.632 190.906C352.238 190.72 351.925 190.453 351.693 190.105C351.461 189.754 351.345 189.33 351.345 188.832C351.345 188.395 351.431 188.04 351.603 187.768C351.776 187.493 352.006 187.278 352.294 187.122C352.583 186.966 352.901 186.85 353.249 186.774C353.6 186.695 353.953 186.632 354.308 186.585C354.772 186.526 355.148 186.481 355.436 186.451C355.728 186.418 355.94 186.363 356.073 186.287C356.209 186.211 356.277 186.078 356.277 185.889V185.849C356.277 185.359 356.142 184.978 355.874 184.706C355.609 184.434 355.206 184.298 354.666 184.298C354.106 184.298 353.667 184.421 353.348 184.666C353.03 184.911 352.806 185.173 352.677 185.452L351.564 185.054C351.762 184.59 352.028 184.229 352.359 183.97C352.694 183.708 353.058 183.526 353.453 183.423C353.85 183.317 354.242 183.264 354.626 183.264C354.871 183.264 355.153 183.294 355.471 183.354C355.793 183.41 356.103 183.528 356.401 183.707C356.703 183.886 356.953 184.156 357.152 184.517C357.35 184.878 357.45 185.362 357.45 185.969V191H356.277V189.966H356.217C356.137 190.132 356.005 190.309 355.819 190.498C355.634 190.687 355.387 190.848 355.078 190.98C354.77 191.113 354.394 191.179 353.95 191.179ZM354.129 190.125C354.593 190.125 354.984 190.034 355.302 189.852C355.624 189.669 355.866 189.434 356.028 189.146C356.194 188.857 356.277 188.554 356.277 188.236V187.162C356.227 187.222 356.118 187.276 355.949 187.326C355.783 187.372 355.591 187.414 355.372 187.45C355.156 187.483 354.946 187.513 354.74 187.54C354.538 187.563 354.374 187.583 354.248 187.599C353.943 187.639 353.658 187.704 353.393 187.793C353.131 187.879 352.919 188.01 352.757 188.186C352.598 188.358 352.518 188.594 352.518 188.892C352.518 189.3 352.669 189.608 352.971 189.817C353.275 190.022 353.662 190.125 354.129 190.125ZM360.765 186.406V191H359.591V183.364H360.725V184.557H360.824C361.003 184.169 361.275 183.857 361.64 183.622C362.004 183.384 362.475 183.264 363.052 183.264C363.569 183.264 364.021 183.37 364.409 183.582C364.797 183.791 365.098 184.109 365.314 184.537C365.529 184.961 365.637 185.498 365.637 186.148V191H364.464V186.227C364.464 185.627 364.308 185.16 363.996 184.825C363.685 184.487 363.257 184.318 362.714 184.318C362.339 184.318 362.004 184.399 361.709 184.562C361.418 184.724 361.187 184.961 361.018 185.273C360.849 185.584 360.765 185.962 360.765 186.406ZM370.664 191.159C370.028 191.159 369.466 190.998 368.979 190.677C368.492 190.352 368.111 189.895 367.836 189.305C367.56 188.711 367.423 188.01 367.423 187.202C367.423 186.4 367.56 185.704 367.836 185.114C368.111 184.524 368.493 184.068 368.984 183.746C369.475 183.425 370.041 183.264 370.684 183.264C371.181 183.264 371.574 183.347 371.863 183.513C372.154 183.675 372.376 183.861 372.529 184.07C372.685 184.275 372.806 184.444 372.892 184.577H372.991V180.818H374.164V191H373.031V189.827H372.892C372.806 189.966 372.683 190.142 372.524 190.354C372.365 190.562 372.138 190.75 371.843 190.915C371.548 191.078 371.155 191.159 370.664 191.159ZM370.824 190.105C371.294 190.105 371.692 189.982 372.017 189.737C372.342 189.489 372.588 189.146 372.757 188.708C372.926 188.267 373.011 187.759 373.011 187.182C373.011 186.612 372.928 186.113 372.762 185.685C372.597 185.254 372.351 184.92 372.027 184.681C371.702 184.439 371.301 184.318 370.824 184.318C370.326 184.318 369.912 184.446 369.581 184.701C369.252 184.953 369.006 185.296 368.84 185.73C368.677 186.161 368.596 186.645 368.596 187.182C368.596 187.725 368.679 188.219 368.845 188.663C369.014 189.104 369.262 189.455 369.591 189.717C369.922 189.976 370.333 190.105 370.824 190.105ZM383.715 191H380.573V180.818H383.854C384.842 180.818 385.687 181.022 386.39 181.43C387.092 181.834 387.631 182.416 388.005 183.175C388.38 183.93 388.567 184.835 388.567 185.889C388.567 186.95 388.378 187.863 388 188.629C387.623 189.391 387.072 189.978 386.35 190.388C385.627 190.796 384.749 191 383.715 191ZM381.806 189.906H383.635C384.477 189.906 385.175 189.744 385.728 189.419C386.282 189.094 386.694 188.632 386.966 188.032C387.238 187.432 387.374 186.718 387.374 185.889C387.374 185.067 387.24 184.36 386.971 183.766C386.703 183.17 386.302 182.712 385.768 182.394C385.234 182.073 384.57 181.912 383.775 181.912H381.806V189.906ZM390.476 191V183.364H391.61V184.517H391.689C391.828 184.139 392.08 183.833 392.445 183.597C392.81 183.362 393.221 183.244 393.678 183.244C393.764 183.244 393.872 183.246 394.001 183.249C394.13 183.253 394.228 183.258 394.294 183.264V184.457C394.255 184.447 394.163 184.433 394.021 184.413C393.882 184.389 393.734 184.378 393.578 184.378C393.207 184.378 392.876 184.456 392.584 184.612C392.296 184.764 392.067 184.976 391.898 185.248C391.732 185.516 391.65 185.823 391.65 186.168V191H390.476ZM398.555 191.159C397.866 191.159 397.261 190.995 396.74 190.667C396.223 190.339 395.819 189.88 395.527 189.29C395.239 188.7 395.095 188.01 395.095 187.222C395.095 186.426 395.239 185.732 395.527 185.138C395.819 184.545 396.223 184.085 396.74 183.756C397.261 183.428 397.866 183.264 398.555 183.264C399.244 183.264 399.848 183.428 400.365 183.756C400.885 184.085 401.289 184.545 401.578 185.138C401.869 185.732 402.015 186.426 402.015 187.222C402.015 188.01 401.869 188.7 401.578 189.29C401.289 189.88 400.885 190.339 400.365 190.667C399.848 190.995 399.244 191.159 398.555 191.159ZM398.555 190.105C399.079 190.105 399.51 189.971 399.848 189.702C400.186 189.434 400.436 189.081 400.598 188.643C400.761 188.206 400.842 187.732 400.842 187.222C400.842 186.711 400.761 186.236 400.598 185.795C400.436 185.354 400.186 184.998 399.848 184.726C399.51 184.454 399.079 184.318 398.555 184.318C398.031 184.318 397.6 184.454 397.262 184.726C396.924 184.998 396.674 185.354 396.512 185.795C396.349 186.236 396.268 186.711 396.268 187.222C396.268 187.732 396.349 188.206 396.512 188.643C396.674 189.081 396.924 189.434 397.262 189.702C397.6 189.971 398.031 190.105 398.555 190.105ZM403.806 193.864V183.364H404.94V184.577H405.079C405.165 184.444 405.285 184.275 405.437 184.07C405.593 183.861 405.815 183.675 406.103 183.513C406.395 183.347 406.789 183.264 407.286 183.264C407.929 183.264 408.496 183.425 408.987 183.746C409.477 184.068 409.86 184.524 410.135 185.114C410.41 185.704 410.548 186.4 410.548 187.202C410.548 188.01 410.41 188.711 410.135 189.305C409.86 189.895 409.479 190.352 408.992 190.677C408.504 190.998 407.943 191.159 407.306 191.159C406.816 191.159 406.423 191.078 406.128 190.915C405.833 190.75 405.606 190.562 405.447 190.354C405.288 190.142 405.165 189.966 405.079 189.827H404.98V193.864H403.806ZM404.96 187.182C404.96 187.759 405.044 188.267 405.213 188.708C405.382 189.146 405.629 189.489 405.954 189.737C406.279 189.982 406.677 190.105 407.147 190.105C407.638 190.105 408.047 189.976 408.375 189.717C408.707 189.455 408.955 189.104 409.121 188.663C409.29 188.219 409.374 187.725 409.374 187.182C409.374 186.645 409.292 186.161 409.126 185.73C408.963 185.296 408.717 184.953 408.385 184.701C408.057 184.446 407.644 184.318 407.147 184.318C406.67 184.318 406.269 184.439 405.944 184.681C405.619 184.92 405.374 185.254 405.208 185.685C405.043 186.113 404.96 186.612 404.96 187.182ZM417.448 186.406V191H416.275V180.818H417.448V184.557H417.548C417.727 184.162 417.995 183.849 418.353 183.617C418.714 183.382 419.195 183.264 419.795 183.264C420.315 183.264 420.771 183.369 421.162 183.577C421.553 183.783 421.856 184.099 422.072 184.527C422.291 184.951 422.4 185.491 422.4 186.148V191H421.227V186.227C421.227 185.621 421.069 185.152 420.754 184.82C420.443 184.486 420.01 184.318 419.457 184.318C419.072 184.318 418.728 184.399 418.423 184.562C418.121 184.724 417.883 184.961 417.707 185.273C417.535 185.584 417.448 185.962 417.448 186.406ZM427.748 191.159C427.012 191.159 426.378 190.997 425.844 190.672C425.314 190.344 424.904 189.886 424.616 189.3C424.331 188.71 424.189 188.024 424.189 187.241C424.189 186.459 424.331 185.77 424.616 185.173C424.904 184.573 425.306 184.106 425.819 183.771C426.336 183.433 426.94 183.264 427.629 183.264C428.027 183.264 428.419 183.33 428.807 183.463C429.195 183.596 429.548 183.811 429.866 184.109C430.184 184.404 430.438 184.795 430.627 185.283C430.816 185.77 430.91 186.37 430.91 187.082V187.58H425.024V186.565H429.717C429.717 186.134 429.631 185.75 429.458 185.412C429.289 185.074 429.047 184.807 428.733 184.612C428.421 184.416 428.053 184.318 427.629 184.318C427.162 184.318 426.757 184.434 426.416 184.666C426.078 184.895 425.818 185.193 425.635 185.561C425.453 185.929 425.362 186.323 425.362 186.744V187.42C425.362 187.997 425.461 188.486 425.66 188.887C425.862 189.285 426.142 189.588 426.5 189.797C426.858 190.002 427.274 190.105 427.748 190.105C428.056 190.105 428.335 190.062 428.583 189.976C428.835 189.886 429.052 189.754 429.235 189.578C429.417 189.399 429.558 189.177 429.657 188.912L430.791 189.23C430.672 189.615 430.471 189.953 430.189 190.244C429.908 190.533 429.56 190.758 429.145 190.92C428.731 191.08 428.265 191.159 427.748 191.159ZM432.695 191V183.364H433.828V184.517H433.908C434.047 184.139 434.299 183.833 434.664 183.597C435.028 183.362 435.439 183.244 435.897 183.244C435.983 183.244 436.091 183.246 436.22 183.249C436.349 183.253 436.447 183.258 436.513 183.264V184.457C436.473 184.447 436.382 184.433 436.24 184.413C436.1 184.389 435.953 184.378 435.797 184.378C435.426 184.378 435.095 184.456 434.803 184.612C434.515 184.764 434.286 184.976 434.117 185.248C433.951 185.516 433.868 185.823 433.868 186.168V191H432.695ZM440.873 191.159C440.137 191.159 439.503 190.997 438.969 190.672C438.439 190.344 438.029 189.886 437.741 189.3C437.456 188.71 437.314 188.024 437.314 187.241C437.314 186.459 437.456 185.77 437.741 185.173C438.029 184.573 438.431 184.106 438.944 183.771C439.461 183.433 440.065 183.264 440.754 183.264C441.152 183.264 441.544 183.33 441.932 183.463C442.32 183.596 442.673 183.811 442.991 184.109C443.309 184.404 443.563 184.795 443.752 185.283C443.941 185.77 444.035 186.37 444.035 187.082V187.58H438.149V186.565H442.842C442.842 186.134 442.756 185.75 442.583 185.412C442.414 185.074 442.172 184.807 441.858 184.612C441.546 184.416 441.178 184.318 440.754 184.318C440.287 184.318 439.882 184.434 439.541 184.666C439.203 184.895 438.943 185.193 438.76 185.561C438.578 185.929 438.487 186.323 438.487 186.744V187.42C438.487 187.997 438.586 188.486 438.785 188.887C438.987 189.285 439.267 189.588 439.625 189.797C439.983 190.002 440.399 190.105 440.873 190.105C441.181 190.105 441.46 190.062 441.708 189.976C441.96 189.886 442.177 189.754 442.36 189.578C442.542 189.399 442.683 189.177 442.782 188.912L443.916 189.23C443.797 189.615 443.596 189.953 443.314 190.244C443.033 190.533 442.685 190.758 442.27 190.92C441.856 191.08 441.39 191.159 440.873 191.159ZM452.86 191.159C452.17 191.159 451.565 190.995 451.045 190.667C450.528 190.339 450.124 189.88 449.832 189.29C449.544 188.7 449.4 188.01 449.4 187.222C449.4 186.426 449.544 185.732 449.832 185.138C450.124 184.545 450.528 184.085 451.045 183.756C451.565 183.428 452.17 183.264 452.86 183.264C453.549 183.264 454.152 183.428 454.669 183.756C455.19 184.085 455.594 184.545 455.882 185.138C456.174 185.732 456.32 186.426 456.32 187.222C456.32 188.01 456.174 188.7 455.882 189.29C455.594 189.88 455.19 190.339 454.669 190.667C454.152 190.995 453.549 191.159 452.86 191.159ZM452.86 190.105C453.383 190.105 453.814 189.971 454.152 189.702C454.49 189.434 454.741 189.081 454.903 188.643C455.065 188.206 455.147 187.732 455.147 187.222C455.147 186.711 455.065 186.236 454.903 185.795C454.741 185.354 454.49 184.998 454.152 184.726C453.814 184.454 453.383 184.318 452.86 184.318C452.336 184.318 451.905 184.454 451.567 184.726C451.229 184.998 450.979 185.354 450.816 185.795C450.654 186.236 450.573 186.711 450.573 187.222C450.573 187.732 450.654 188.206 450.816 188.643C450.979 189.081 451.229 189.434 451.567 189.702C451.905 189.971 452.336 190.105 452.86 190.105ZM458.111 191V183.364H459.244V184.517H459.324C459.463 184.139 459.715 183.833 460.08 183.597C460.444 183.362 460.855 183.244 461.313 183.244C461.399 183.244 461.507 183.246 461.636 183.249C461.765 183.253 461.863 183.258 461.929 183.264V184.457C461.889 184.447 461.798 184.433 461.656 184.413C461.517 184.389 461.369 184.378 461.213 184.378C460.842 184.378 460.511 184.456 460.219 184.612C459.931 184.764 459.702 184.976 459.533 185.248C459.367 185.516 459.284 185.823 459.284 186.168V191H458.111Z" fill="black"/>
<path d="M475.759 184.129H474.208C474.148 183.798 474.037 183.506 473.875 183.254C473.712 183.002 473.513 182.789 473.278 182.613C473.043 182.437 472.779 182.305 472.488 182.215C472.199 182.126 471.893 182.081 471.568 182.081C470.981 182.081 470.456 182.228 469.992 182.523C469.531 182.818 469.167 183.251 468.898 183.821C468.633 184.391 468.5 185.087 468.5 185.909C468.5 186.738 468.633 187.437 468.898 188.007C469.167 188.577 469.533 189.008 469.997 189.3C470.461 189.591 470.983 189.737 471.563 189.737C471.884 189.737 472.189 189.694 472.478 189.608C472.769 189.518 473.033 189.388 473.268 189.215C473.503 189.043 473.702 188.832 473.865 188.584C474.03 188.332 474.145 188.044 474.208 187.719L475.759 187.724C475.676 188.224 475.515 188.685 475.277 189.106C475.041 189.523 474.738 189.885 474.367 190.19C473.999 190.491 473.578 190.725 473.104 190.891C472.63 191.056 472.113 191.139 471.553 191.139C470.671 191.139 469.886 190.93 469.196 190.513C468.507 190.092 467.963 189.49 467.566 188.708C467.171 187.926 466.974 186.993 466.974 185.909C466.974 184.822 467.173 183.889 467.571 183.11C467.968 182.328 468.512 181.728 469.201 181.31C469.891 180.889 470.675 180.679 471.553 180.679C472.093 180.679 472.597 180.757 473.064 180.913C473.535 181.065 473.958 181.29 474.332 181.589C474.707 181.884 475.016 182.245 475.262 182.673C475.507 183.097 475.673 183.582 475.759 184.129ZM478.964 186.466V191H477.478V180.818H478.944V184.607H479.039C479.218 184.196 479.491 183.869 479.859 183.627C480.227 183.385 480.708 183.264 481.301 183.264C481.825 183.264 482.282 183.372 482.673 183.587C483.068 183.803 483.372 184.124 483.588 184.552C483.807 184.976 483.916 185.506 483.916 186.143V191H482.43V186.322C482.43 185.762 482.285 185.327 481.997 185.019C481.709 184.708 481.308 184.552 480.794 184.552C480.443 184.552 480.128 184.626 479.849 184.776C479.574 184.925 479.357 185.143 479.198 185.432C479.042 185.717 478.964 186.062 478.964 186.466ZM489.116 191.154C488.4 191.154 487.776 190.99 487.242 190.662C486.708 190.334 486.294 189.875 485.999 189.285C485.704 188.695 485.557 188.005 485.557 187.217C485.557 186.424 485.704 185.732 485.999 185.138C486.294 184.545 486.708 184.085 487.242 183.756C487.776 183.428 488.4 183.264 489.116 183.264C489.832 183.264 490.457 183.428 490.991 183.756C491.524 184.085 491.939 184.545 492.233 185.138C492.528 185.732 492.676 186.424 492.676 187.217C492.676 188.005 492.528 188.695 492.233 189.285C491.939 189.875 491.524 190.334 490.991 190.662C490.457 190.99 489.832 191.154 489.116 191.154ZM489.121 189.906C489.585 189.906 489.97 189.784 490.275 189.538C490.58 189.293 490.805 188.967 490.951 188.559C491.1 188.151 491.175 187.702 491.175 187.212C491.175 186.724 491.1 186.277 490.951 185.869C490.805 185.458 490.58 185.129 490.275 184.88C489.97 184.631 489.585 184.507 489.121 184.507C488.654 184.507 488.266 184.631 487.958 184.88C487.653 185.129 487.426 185.458 487.277 185.869C487.131 186.277 487.058 186.724 487.058 187.212C487.058 187.702 487.131 188.151 487.277 188.559C487.426 188.967 487.653 189.293 487.958 189.538C488.266 189.784 488.654 189.906 489.121 189.906ZM497.552 191.154C496.836 191.154 496.211 190.99 495.678 190.662C495.144 190.334 494.73 189.875 494.435 189.285C494.14 188.695 493.992 188.005 493.992 187.217C493.992 186.424 494.14 185.732 494.435 185.138C494.73 184.545 495.144 184.085 495.678 183.756C496.211 183.428 496.836 183.264 497.552 183.264C498.268 183.264 498.893 183.428 499.426 183.756C499.96 184.085 500.374 184.545 500.669 185.138C500.964 185.732 501.112 186.424 501.112 187.217C501.112 188.005 500.964 188.695 500.669 189.285C500.374 189.875 499.96 190.334 499.426 190.662C498.893 190.99 498.268 191.154 497.552 191.154ZM497.557 189.906C498.021 189.906 498.405 189.784 498.71 189.538C499.015 189.293 499.241 188.967 499.386 188.559C499.536 188.151 499.61 187.702 499.61 187.212C499.61 186.724 499.536 186.277 499.386 185.869C499.241 185.458 499.015 185.129 498.71 184.88C498.405 184.631 498.021 184.507 497.557 184.507C497.089 184.507 496.702 184.631 496.393 184.88C496.089 185.129 495.862 185.458 495.712 185.869C495.567 186.277 495.494 186.724 495.494 187.212C495.494 187.702 495.567 188.151 495.712 188.559C495.862 188.967 496.089 189.293 496.393 189.538C496.702 189.784 497.089 189.906 497.557 189.906ZM508.493 185.228L507.146 185.467C507.089 185.294 507 185.13 506.877 184.974C506.758 184.819 506.596 184.691 506.39 184.592C506.185 184.492 505.928 184.442 505.619 184.442C505.199 184.442 504.847 184.537 504.566 184.726C504.284 184.911 504.143 185.152 504.143 185.447C504.143 185.702 504.237 185.907 504.426 186.063C504.615 186.219 504.92 186.347 505.341 186.446L506.554 186.724C507.257 186.887 507.78 187.137 508.125 187.475C508.47 187.813 508.642 188.252 508.642 188.793C508.642 189.25 508.51 189.658 508.244 190.016C507.983 190.37 507.616 190.649 507.146 190.851C506.678 191.053 506.137 191.154 505.52 191.154C504.665 191.154 503.967 190.972 503.427 190.607C502.887 190.239 502.555 189.717 502.433 189.041L503.869 188.822C503.959 189.197 504.143 189.48 504.421 189.673C504.7 189.862 505.063 189.956 505.51 189.956C505.997 189.956 506.387 189.855 506.678 189.653C506.97 189.447 507.116 189.197 507.116 188.902C507.116 188.663 507.026 188.463 506.847 188.3C506.672 188.138 506.402 188.015 506.037 187.933L504.744 187.649C504.032 187.487 503.505 187.228 503.164 186.874C502.825 186.519 502.656 186.07 502.656 185.526C502.656 185.076 502.782 184.681 503.034 184.343C503.286 184.005 503.634 183.741 504.078 183.553C504.522 183.36 505.031 183.264 505.605 183.264C506.43 183.264 507.079 183.443 507.553 183.801C508.027 184.156 508.341 184.631 508.493 185.228ZM513.568 191.154C512.815 191.154 512.167 190.993 511.624 190.672C511.084 190.347 510.666 189.891 510.371 189.305C510.079 188.715 509.934 188.024 509.934 187.232C509.934 186.449 510.079 185.76 510.371 185.163C510.666 184.567 511.077 184.101 511.604 183.766C512.134 183.432 512.754 183.264 513.463 183.264C513.894 183.264 514.312 183.335 514.716 183.478C515.121 183.621 515.484 183.844 515.805 184.149C516.127 184.454 516.38 184.85 516.566 185.337C516.751 185.821 516.844 186.41 516.844 187.102V187.629H510.774V186.516H515.387C515.387 186.125 515.308 185.778 515.149 185.477C514.99 185.172 514.766 184.931 514.478 184.756C514.193 184.58 513.858 184.492 513.473 184.492C513.056 184.492 512.691 184.595 512.38 184.8C512.071 185.003 511.833 185.268 511.664 185.596C511.498 185.921 511.415 186.274 511.415 186.655V187.525C511.415 188.035 511.505 188.469 511.684 188.827C511.866 189.185 512.119 189.459 512.444 189.648C512.769 189.833 513.149 189.926 513.583 189.926C513.864 189.926 514.121 189.886 514.353 189.807C514.585 189.724 514.786 189.601 514.955 189.439C515.124 189.277 515.253 189.076 515.343 188.837L516.75 189.091C516.637 189.505 516.435 189.868 516.143 190.18C515.855 190.488 515.492 190.728 515.054 190.901C514.62 191.07 514.125 191.154 513.568 191.154ZM522.318 191V180.818H528.632V182.141H523.854V185.243H528.179V186.56H523.854V191H522.318ZM530.402 191V183.364H531.888V191H530.402ZM531.152 182.185C530.894 182.185 530.672 182.099 530.486 181.927C530.304 181.751 530.213 181.542 530.213 181.3C530.213 181.055 530.304 180.846 530.486 180.674C530.672 180.498 530.894 180.411 531.152 180.411C531.411 180.411 531.631 180.498 531.814 180.674C531.999 180.846 532.092 181.055 532.092 181.3C532.092 181.542 531.999 181.751 531.814 181.927C531.631 182.099 531.411 182.185 531.152 182.185ZM535.374 180.818V191H533.888V180.818H535.374ZM540.665 191.154C539.913 191.154 539.265 190.993 538.722 190.672C538.181 190.347 537.764 189.891 537.469 189.305C537.177 188.715 537.031 188.024 537.031 187.232C537.031 186.449 537.177 185.76 537.469 185.163C537.764 184.567 538.175 184.101 538.702 183.766C539.232 183.432 539.852 183.264 540.561 183.264C540.992 183.264 541.41 183.335 541.814 183.478C542.218 183.621 542.581 183.844 542.903 184.149C543.224 184.454 543.478 184.85 543.663 185.337C543.849 185.821 543.942 186.41 543.942 187.102V187.629H537.871V186.516H542.485C542.485 186.125 542.406 185.778 542.246 185.477C542.087 185.172 541.864 184.931 541.575 184.756C541.29 184.58 540.955 184.492 540.571 184.492C540.153 184.492 539.789 184.595 539.477 184.8C539.169 185.003 538.93 185.268 538.761 185.596C538.596 185.921 538.513 186.274 538.513 186.655V187.525C538.513 188.035 538.602 188.469 538.781 188.827C538.964 189.185 539.217 189.459 539.542 189.648C539.867 189.833 540.246 189.926 540.68 189.926C540.962 189.926 541.219 189.886 541.451 189.807C541.683 189.724 541.884 189.601 542.053 189.439C542.222 189.277 542.351 189.076 542.44 188.837L543.847 189.091C543.735 189.505 543.532 189.868 543.241 190.18C542.952 190.488 542.589 190.728 542.152 190.901C541.718 191.07 541.222 191.154 540.665 191.154Z" fill="#0539F3"/>
<path d="M466.184 193.784H544.598V194.739H466.184V193.784Z" fill="#0539F3"/>
<defs>
<linearGradient id="paint0_linear_5_6" x1="-66.4211" y1="-57.0526" x2="76.1333" y2="644.338" gradientUnits="userSpaceOnUse">
<stop stop-color="#B75397"/>
<stop offset="1" stop-color="#5F46CC"/>
</linearGradient>
<linearGradient id="paint1_linear_5_6" x1="400.947" y1="77.4912" x2="477.85" y2="178.698" gradientUnits="userSpaceOnUse">
<stop stop-color="#B75397"/>
<stop offset="1" stop-color="#5F46CC"/>
</linearGradient>
<linearGradient id="paint2_linear_5_6" x1="418.211" y1="107.351" x2="418.402" y2="110.332" gradientUnits="userSpaceOnUse">
<stop stop-color="#B75397"/>
<stop offset="1" stop-color="#5F46CC"/>
</linearGradient>
<linearGradient id="paint3_linear_5_6" x1="417.088" y1="120.684" x2="417.184" y2="123.674" gradientUnits="userSpaceOnUse">
<stop stop-color="#B75397"/>
<stop offset="1" stop-color="#5F46CC"/>
</linearGradient>
<linearGradient id="paint4_linear_5_6" x1="417.088" y1="134.018" x2="417.184" y2="137.008" gradientUnits="userSpaceOnUse">
<stop stop-color="#B75397"/>
<stop offset="1" stop-color="#5F46CC"/>
</linearGradient>
<linearGradient id="paint5_linear_5_6" x1="445.895" y1="89.2807" x2="450.235" y2="89.6774" gradientUnits="userSpaceOnUse">
<stop stop-color="#B75397"/>
<stop offset="1" stop-color="#5F46CC"/>
</linearGradient>
<linearGradient id="paint6_linear_5_6" x1="459.053" y1="102.228" x2="458.656" y2="106.569" gradientUnits="userSpaceOnUse">
<stop stop-color="#B75397"/>
<stop offset="1" stop-color="#5F46CC"/>
</linearGradient>
</defs>
</svg>
