<svg width="22" height="22" viewBox="0 0 22 22" fill="none" xmlns="http://www.w3.org/2000/svg">
<path fill-rule="evenodd" clip-rule="evenodd" d="M4.75 1.5C2.95507 1.5 1.5 2.95507 1.5 4.75V16.75C1.5 18.5449 2.95507 20 4.75 20H16.75C18.5449 20 20 18.5449 20 16.75V10.75C20 10.3358 20.3358 10 20.75 10C21.1642 10 21.5 10.3358 21.5 10.75V16.75C21.5 19.3734 19.3734 21.5 16.75 21.5H4.75C2.12665 21.5 0 19.3734 0 16.75V4.75C0 2.12665 2.12665 0 4.75 0H10.75C11.1642 0 11.5 0.335786 11.5 0.75C11.5 1.16421 11.1642 1.5 10.75 1.5H4.75Z" fill="#28303F"/>
<path fill-rule="evenodd" clip-rule="evenodd" d="M4.75 1.5C2.95507 1.5 1.5 2.95507 1.5 4.75V16.75C1.5 18.5449 2.95507 20 4.75 20H16.75C18.5449 20 20 18.5449 20 16.75V10.75C20 10.3358 20.3358 10 20.75 10C21.1642 10 21.5 10.3358 21.5 10.75V16.75C21.5 19.3734 19.3734 21.5 16.75 21.5H4.75C2.12665 21.5 0 19.3734 0 16.75V4.75C0 2.12665 2.12665 0 4.75 0H10.75C11.1642 0 11.5 0.335786 11.5 0.75C11.5 1.16421 11.1642 1.5 10.75 1.5H4.75Z" fill="url(#paint0_linear_355_79)"/>
<path fill-rule="evenodd" clip-rule="evenodd" d="M18.4383 1.42708C17.5355 0.524305 16.0718 0.524305 15.169 1.42708L13.7197 2.87639C13.7761 2.99018 13.837 3.10989 13.9024 3.23403C14.3422 4.06945 14.9595 5.06082 15.6993 5.80069C16.4392 6.54057 17.4306 7.15786 18.266 7.59767C18.3901 7.66302 18.5098 7.72394 18.6236 7.78028L20.0729 6.33096C20.9757 5.42818 20.9757 3.96449 20.0729 3.06171L18.4383 1.42708ZM17.5095 8.89441C16.6277 8.42594 15.5142 7.73687 14.6387 6.86135C13.7631 5.98582 13.0741 4.87234 12.6056 3.99053L6.90616 9.68996C6.55248 10.0436 6.32305 10.5025 6.25231 10.9977L5.76193 14.4304C5.65295 15.1932 6.3068 15.847 7.06963 15.7381L10.5023 15.2477C10.9975 15.1769 11.4564 14.9475 11.81 14.5938L17.5095 8.89441Z" fill="#28303F"/>
<path fill-rule="evenodd" clip-rule="evenodd" d="M18.4383 1.42708C17.5355 0.524305 16.0718 0.524305 15.169 1.42708L13.7197 2.87639C13.7761 2.99018 13.837 3.10989 13.9024 3.23403C14.3422 4.06945 14.9595 5.06082 15.6993 5.80069C16.4392 6.54057 17.4306 7.15786 18.266 7.59767C18.3901 7.66302 18.5098 7.72394 18.6236 7.78028L20.0729 6.33096C20.9757 5.42818 20.9757 3.96449 20.0729 3.06171L18.4383 1.42708ZM17.5095 8.89441C16.6277 8.42594 15.5142 7.73687 14.6387 6.86135C13.7631 5.98582 13.0741 4.87234 12.6056 3.99053L6.90616 9.68996C6.55248 10.0436 6.32305 10.5025 6.25231 10.9977L5.76193 14.4304C5.65295 15.1932 6.3068 15.847 7.06963 15.7381L10.5023 15.2477C10.9975 15.1769 11.4564 14.9475 11.81 14.5938L17.5095 8.89441Z" fill="url(#paint1_linear_355_79)"/>
<defs>
<linearGradient id="paint0_linear_355_79" x1="-2.26316" y1="-6.78947" x2="27.7237" y2="37.0592" gradientUnits="userSpaceOnUse">
<stop stop-color="#B75397"/>
<stop offset="1" stop-color="#5F46CC"/>
</linearGradient>
<linearGradient id="paint1_linear_355_79" x1="4.17105" y1="-3.98684" x2="25.0921" y2="26.6053" gradientUnits="userSpaceOnUse">
<stop stop-color="#B75397"/>
<stop offset="1" stop-color="#5F46CC"/>
</linearGradient>
</defs>
</svg>
