<svg width="42" height="42" viewBox="0 0 42 42" fill="none" xmlns="http://www.w3.org/2000/svg">
<rect width="42" height="42" rx="8" fill="#5F46CC"/>
<path d="M12 16H15M15 16C15 17.6569 16.3431 19 18 19C19.6569 19 21 17.6569 21 16C21 14.3431 19.6569 13 18 13C16.3431 13 15 14.3431 15 16ZM12 26H18M27 26H30M27 26C27 27.6569 25.6569 29 24 29C22.3431 29 21 27.6569 21 26C21 24.3431 22.3431 23 24 23C25.6569 23 27 24.3431 27 26ZM24 16H30" stroke="white" stroke-width="1.5" stroke-linecap="round"/>
</svg>
