<svg width="38" height="38" viewBox="0 0 38 38" fill="none" xmlns="http://www.w3.org/2000/svg">
<circle cx="19" cy="19" r="19" fill="#FAFAFA"/>
<path d="M28.1303 16.8531C29.2899 18.0732 29.2899 19.9268 28.1303 21.1469C26.1745 23.2047 22.8155 26 19 26C15.1845 26 11.8255 23.2047 9.86971 21.1469C8.7101 19.9268 8.7101 18.0732 9.86971 16.8531C11.8255 14.7953 15.1845 12 19 12C22.8155 12 26.1745 14.7953 28.1303 16.8531Z" stroke="#777777" stroke-width="1.5"/>
<path d="M22 19C22 20.6569 20.6569 22 19 22C17.3431 22 16 20.6569 16 19C16 17.3431 17.3431 16 19 16C20.6569 16 22 17.3431 22 19Z" stroke="#777777" stroke-width="1.5"/>
</svg>
