<svg width="32" height="32" viewBox="0 0 32 32" fill="none" xmlns="http://www.w3.org/2000/svg">
<path d="M19.9999 13.6885L18.2761 15.4123C17.7554 15.933 17.7554 16.7773 18.2761 17.298L19.9999 19.0218M18.6666 16.3551L26.6666 16.3551M5.33325 23.0218V9.68844M21.3333 23.0218C21.3333 24.4945 20.1393 25.6884 18.6666 25.6884H13.3333M21.3333 9.68844C21.3333 8.21568 20.1393 7.02177 18.6666 7.02177H13.3333M6.52072 26.4801L9.18739 28.2579C10.9595 29.4393 13.3333 28.1689 13.3333 26.0391V6.67115C13.3333 4.5413 10.9595 3.27092 9.18739 4.45235L6.52072 6.23013C5.77886 6.7247 5.33325 7.55732 5.33325 8.44893V24.2613C5.33325 25.1529 5.77886 25.9855 6.52072 26.4801Z" stroke="#686868" stroke-width="1.5" stroke-linecap="round"/>
</svg>
