<svg width="48" height="48" viewBox="0 0 48 48" fill="none" xmlns="http://www.w3.org/2000/svg">
<rect width="48" height="48" rx="8" fill="#FFEBF9"/>
<path d="M25.3333 10.6667V16C25.3333 18.9455 27.7211 21.3333 30.6667 21.3333L36 21.3333M12 16L12 32C12 34.9455 14.3878 37.3333 17.3333 37.3333H30.6667C33.6122 37.3333 36 34.9455 36 32V23.5425C36 22.128 35.4381 20.7714 34.4379 19.7712L26.8954 12.2288C25.8952 11.2286 24.5387 10.6667 23.1242 10.6667L17.3333 10.6667C14.3878 10.6667 12 13.0545 12 16Z" stroke="#B75397" stroke-width="1.5" stroke-linejoin="round"/>
<path d="M16.582 32V26.2734H18.4375C19.1406 26.2734 19.599 26.3021 19.8125 26.3594C20.1406 26.4453 20.4154 26.6328 20.6367 26.9219C20.8581 27.2083 20.9688 27.5794 20.9688 28.0352C20.9688 28.3867 20.9049 28.6823 20.7773 28.9219C20.6497 29.1615 20.487 29.3503 20.2891 29.4883C20.0938 29.6237 19.8945 29.7135 19.6914 29.7578C19.4154 29.8125 19.0156 29.8398 18.4922 29.8398H17.7383V32H16.582ZM17.7383 27.2422V28.8672H18.3711C18.8268 28.8672 19.1315 28.8372 19.2852 28.7773C19.4388 28.7174 19.5586 28.6237 19.6445 28.4961C19.7331 28.3685 19.7773 28.2201 19.7773 28.0508C19.7773 27.8424 19.7161 27.6706 19.5938 27.5352C19.4714 27.3997 19.3164 27.3151 19.1289 27.2812C18.9909 27.2552 18.7135 27.2422 18.2969 27.2422H17.7383Z" fill="#B75397"/>
<path d="M21.9141 26.2734H24.0273C24.5039 26.2734 24.8672 26.3099 25.1172 26.3828C25.4531 26.4818 25.7409 26.6576 25.9805 26.9102C26.2201 27.1628 26.4023 27.4727 26.5273 27.8398C26.6523 28.2044 26.7148 28.6549 26.7148 29.1914C26.7148 29.6628 26.6562 30.069 26.5391 30.4102C26.3958 30.8268 26.1914 31.1641 25.9258 31.4219C25.7253 31.6172 25.4544 31.7695 25.1133 31.8789C24.8581 31.9596 24.5169 32 24.0898 32H21.9141V26.2734ZM23.0703 27.2422V31.0352H23.9336C24.2565 31.0352 24.4896 31.0169 24.6328 30.9805C24.8203 30.9336 24.9753 30.8542 25.0977 30.7422C25.2227 30.6302 25.3242 30.4466 25.4023 30.1914C25.4805 29.9336 25.5195 29.5833 25.5195 29.1406C25.5195 28.6979 25.4805 28.3581 25.4023 28.1211C25.3242 27.8841 25.2148 27.6992 25.0742 27.5664C24.9336 27.4336 24.7552 27.3438 24.5391 27.2969C24.3776 27.2604 24.0612 27.2422 23.5898 27.2422H23.0703Z" fill="#B75397"/>
<path d="M27.707 32V26.2734H31.6328V27.2422H28.8633V28.5977H31.2539V29.5664H28.8633V32H27.707Z" fill="#B75397"/>
</svg>
