<svg width="74" height="74" viewBox="0 0 74 74" fill="none" xmlns="http://www.w3.org/2000/svg">
<rect width="74" height="74" rx="14.8" fill="#B75397"/>
<g clip-path="url(#clip0_13_192)">
<path d="M47.4255 23.2118H46.2762V20.7004C47.8597 20.1409 48.8098 18.5212 48.5257 16.8659C48.2414 15.21 46.8061 14 45.1263 14C43.4464 14 42.0112 15.21 41.727 16.8659C41.4429 18.5213 42.3931 20.1409 43.9765 20.7004V23.2117H30.1807V20.7004C31.7647 20.1409 32.7144 18.5212 32.4306 16.8659C32.1467 15.21 30.7113 14 29.0315 14C27.3516 14 25.916 15.21 25.6322 16.8659C25.3481 18.5213 26.2979 20.1409 27.8817 20.7004V23.2117H26.7319C23.5589 23.2151 20.9873 25.7866 20.9838 28.9599V48.5037C20.9873 51.6773 23.5588 54.2489 26.7319 54.2522H30.1808V58.8505C30.181 59.0557 30.2361 59.2572 30.3403 59.434C30.4445 59.6107 30.5941 59.7564 30.7736 59.8559C30.9531 59.9553 31.1558 60.0049 31.3609 59.9995C31.566 59.9941 31.7659 59.9339 31.9398 59.8252L40.8578 54.2522H47.4255C50.5992 54.2492 53.1712 51.6774 53.174 48.5037V28.9598C53.1711 25.7865 50.5992 23.2147 47.4255 23.2118ZM31.3306 30.1097C33.2346 30.1118 34.7774 31.6548 34.7796 33.5586C34.7796 34.1934 34.2651 34.708 33.6298 34.708C32.995 34.708 32.4804 34.1934 32.4804 33.5586C32.4804 32.9238 31.9657 32.4087 31.3306 32.4087C30.6958 32.4087 30.1808 32.9236 30.1808 33.5585C30.1808 34.1934 29.6664 34.7079 29.0315 34.7079C28.3966 34.7079 27.8817 34.1933 27.8817 33.5585C27.8838 31.6547 29.4268 30.1118 31.3306 30.1097ZM45.6405 44.3588C42.9648 45.6208 40.0368 46.2566 37.0787 46.218C34.1207 46.2568 31.193 45.6209 28.5171 44.3588C27.9491 44.0751 27.7193 43.3842 28.0029 42.8162C28.2872 42.2482 28.9776 42.018 29.5456 42.3021C33.8399 44.4485 40.3189 44.4485 44.6124 42.3021C45.1804 42.018 45.8708 42.2482 46.1549 42.8162C46.4387 43.3842 46.2085 44.0751 45.6405 44.3588ZM45.1264 34.708C44.8216 34.7084 44.529 34.5871 44.3134 34.3716C44.0978 34.156 43.9766 33.8634 43.9766 33.5586C43.9766 32.9238 43.4622 32.4088 42.8272 32.4088C42.1923 32.4088 41.6774 32.9237 41.6774 33.5586C41.6774 34.1935 41.163 34.708 40.5277 34.708C39.8928 34.708 39.3783 34.1934 39.3783 33.5586C39.3783 31.6535 40.9222 30.1097 42.8272 30.1097C44.7319 30.1097 46.2762 31.6535 46.2762 33.5586C46.2762 33.8634 46.1555 34.156 45.9394 34.3716C45.7238 34.5871 45.4313 34.7085 45.1264 34.708ZM56.623 32.4087H55.4732V43.9055H56.623C58.5268 43.9034 60.0698 42.3604 60.0719 40.4566V35.8576C60.0698 33.9538 58.5268 32.4109 56.623 32.4087ZM14.0859 35.8576V40.4565C14.0881 42.3603 15.6311 43.9033 17.5349 43.9054H18.6847V32.4087H17.5349C15.6311 32.4109 14.0881 33.9538 14.0859 35.8576Z" fill="white"/>
</g>
<defs>
<clipPath id="clip0_13_192">
<rect width="46" height="46" fill="white" transform="translate(14 14)"/>
</clipPath>
</defs>
</svg>
